<svg width="120" height="120" viewBox="0 0 120 120" fill="none" xmlns="http://www.w3.org/2000/svg">
<g clip-path="url(#clip0_1_25)">
<path d="M60 10C87.615 10 110 32.385 110 60C110 63.245 109.69 66.42 109.1 69.5C107.17 79.52 97.115 83.75 88.69 82.35L79.99 80.9C78.9776 80.7312 77.9395 80.8065 76.9621 81.1196C75.9846 81.4327 75.096 81.9745 74.37 82.7C72.52 84.55 71.635 87.095 72.88 89.58C74.995 93.81 75.025 98.64 73.155 102.595C70.655 107.9 65.55 110 60 110C32.385 110 10 87.615 10 60C10 32.385 32.385 10 60 10ZM60 20C49.3913 20 39.2172 24.2143 31.7157 31.7157C24.2143 39.2172 20 49.3913 20 60C20 70.6087 24.2143 80.7828 31.7157 88.2843C39.2172 95.7857 49.3913 100 60 100L60.975 99.99C62.265 99.94 63.475 99.69 64.115 98.33C64.4056 97.6491 64.5403 96.9118 64.5091 96.1721C64.478 95.4324 64.2818 94.7091 63.935 94.055C60.785 87.745 62.425 80.505 67.3 75.63C69.1513 73.7786 71.4178 72.3958 73.9111 71.5966C76.4043 70.7974 79.0523 70.6048 81.635 71.035L90.335 72.485C95.12 73.285 98.675 70.745 99.28 67.61C100.402 61.8189 100.23 55.8513 98.7749 50.1347C97.3201 44.4182 94.6189 39.0941 90.8649 34.544C87.1109 29.9939 82.3971 26.3304 77.061 23.816C71.7249 21.3016 65.8988 19.9984 60 20V20ZM37.5 55C38.4849 55 39.4602 55.194 40.3701 55.5709C41.2801 55.9478 42.1069 56.5003 42.8033 57.1967C43.4997 57.8931 44.0522 58.7199 44.4291 59.6299C44.806 60.5398 45 61.5151 45 62.5C45 63.4849 44.806 64.4602 44.4291 65.3701C44.0522 66.2801 43.4997 67.1069 42.8033 67.8033C42.1069 68.4997 41.2801 69.0522 40.3701 69.4291C39.4602 69.806 38.4849 70 37.5 70C35.5109 70 33.6032 69.2098 32.1967 67.8033C30.7902 66.3968 30 64.4891 30 62.5C30 60.5109 30.7902 58.6032 32.1967 57.1967C33.6032 55.7902 35.5109 55 37.5 55V55ZM72.5 35C74.4891 35 76.3968 35.7902 77.8033 37.1967C79.2098 38.6032 80 40.5109 80 42.5C80 44.4891 79.2098 46.3968 77.8033 47.8033C76.3968 49.2098 74.4891 50 72.5 50C70.5109 50 68.6032 49.2098 67.1967 47.8033C65.7902 46.3968 65 44.4891 65 42.5C65 40.5109 65.7902 38.6032 67.1967 37.1967C68.6032 35.7902 70.5109 35 72.5 35ZM47.5 35C49.4891 35 51.3968 35.7902 52.8033 37.1967C54.2098 38.6032 55 40.5109 55 42.5C55 44.4891 54.2098 46.3968 52.8033 47.8033C51.3968 49.2098 49.4891 50 47.5 50C45.5109 50 43.6032 49.2098 42.1967 47.8033C40.7902 46.3968 40 44.4891 40 42.5C40 40.5109 40.7902 38.6032 42.1967 37.1967C43.6032 35.7902 45.5109 35 47.5 35Z" fill="white"/>
</g>
<defs>
<clipPath id="clip0_1_25">
<rect width="120" height="120" fill="white"/>
</clipPath>
</defs>
</svg>
