<svg width="120" height="120" viewBox="0 0 120 120" fill="none" xmlns="http://www.w3.org/2000/svg">
<path d="M90 30H72.05L83.55 18.55C84.0162 18.0838 84.386 17.5304 84.6383 16.9213C84.8906 16.3121 85.0205 15.6593 85.0205 15C85.0205 14.3407 84.8906 13.6879 84.6383 13.0788C84.386 12.4697 84.0162 11.9162 83.55 11.45C83.0838 10.9838 82.5304 10.614 81.9212 10.3617C81.3121 10.1094 80.6593 9.97955 80 9.97955C78.6685 9.97955 77.3915 10.5085 76.45 11.45L60 27.95L43.55 11.45C43.0838 10.9838 42.5304 10.614 41.9212 10.3617C41.3121 10.1094 40.6593 9.97955 40 9.97955C39.3407 9.97955 38.6879 10.1094 38.0788 10.3617C37.4696 10.614 36.9162 10.9838 36.45 11.45C35.5085 12.3915 34.9795 13.6685 34.9795 15C34.9795 15.6593 35.1094 16.3121 35.3617 16.9213C35.614 17.5304 35.9838 18.0838 36.45 18.55L47.95 30H30C26.0218 30 22.2064 31.5804 19.3934 34.3934C16.5804 37.2065 15 41.0218 15 45V95C15 98.9783 16.5804 102.794 19.3934 105.607C22.2064 108.42 26.0218 110 30 110H90C93.9782 110 97.7936 108.42 100.607 105.607C103.42 102.794 105 98.9783 105 95V45C105 41.0218 103.42 37.2065 100.607 34.3934C97.7936 31.5804 93.9782 30 90 30ZM95 95C95 96.3261 94.4732 97.5979 93.5355 98.5355C92.5979 99.4732 91.3261 100 90 100H30C28.6739 100 27.4021 99.4732 26.4645 98.5355C25.5268 97.5979 25 96.3261 25 95V45C25 43.6739 25.5268 42.4022 26.4645 41.4645C27.4021 40.5268 28.6739 40 30 40H90C91.3261 40 92.5979 40.5268 93.5355 41.4645C94.4732 42.4022 95 43.6739 95 45V95Z" fill="white"/>
</svg>
