<svg width="120" height="120" viewBox="0 0 120 120" fill="none" xmlns="http://www.w3.org/2000/svg">
<g clip-path="url(#clip0_1_34)">
<path fill-rule="evenodd" clip-rule="evenodd" d="M20 35C20 28.3696 22.6339 22.0107 27.3223 17.3223C32.0107 12.6339 38.3696 10 45 10H75C81.6304 10 87.9893 12.6339 92.6777 17.3223C97.3661 22.0107 100 28.3696 100 35V65C100 71.6304 97.3661 77.9893 92.6777 82.6777C87.9893 87.3661 81.6304 90 75 90H65V100H75C76.3261 100 77.5979 100.527 78.5355 101.464C79.4732 102.402 80 103.674 80 105C80 106.326 79.4732 107.598 78.5355 108.536C77.5979 109.473 76.3261 110 75 110H45C43.6739 110 42.4021 109.473 41.4645 108.536C40.5268 107.598 40 106.326 40 105C40 103.674 40.5268 102.402 41.4645 101.464C42.4021 100.527 43.6739 100 45 100H55V90H45C38.3696 90 32.0107 87.3661 27.3223 82.6777C22.6339 77.9893 20 71.6304 20 65V35ZM60 80H75C78.9782 80 82.7936 78.4197 85.6066 75.6066C88.4197 72.7936 90 68.9782 90 65H75C73.6739 65 72.4021 64.4732 71.4645 63.5355C70.5268 62.5979 70 61.3261 70 60C70 58.6739 70.5268 57.4021 71.4645 56.4645C72.4021 55.5268 73.6739 55 75 55H90V45H75C73.6739 45 72.4021 44.4732 71.4645 43.5355C70.5268 42.5979 70 41.3261 70 40C70 38.6739 70.5268 37.4021 71.4645 36.4645C72.4021 35.5268 73.6739 35 75 35H90C90 31.0218 88.4197 27.2064 85.6066 24.3934C82.7936 21.5804 78.9782 20 75 20H45C41.0218 20 37.2064 21.5804 34.3934 24.3934C31.5804 27.2064 30 31.0218 30 35H45C46.3261 35 47.5979 35.5268 48.5355 36.4645C49.4732 37.4021 50 38.6739 50 40C50 41.3261 49.4732 42.5979 48.5355 43.5355C47.5979 44.4732 46.3261 45 45 45H30V55H45C46.3261 55 47.5979 55.5268 48.5355 56.4645C49.4732 57.4021 50 58.6739 50 60C50 61.3261 49.4732 62.5979 48.5355 63.5355C47.5979 64.4732 46.3261 65 45 65H30C30 68.9782 31.5804 72.7936 34.3934 75.6066C37.2064 78.4197 41.0218 80 45 80H60Z" fill="white"/>
</g>
<defs>
<clipPath id="clip0_1_34">
<rect width="120" height="120" fill="white"/>
</clipPath>
</defs>
</svg>
