<svg width="120" height="120" viewBox="0 0 120 120" fill="none" xmlns="http://www.w3.org/2000/svg">
<path d="M90 55C90 50.205 86.6 46.195 82.095 45.23C83.895 42.225 85 38.75 85 35C85 23.97 76.03 15 65 15C57.415 15 50.895 19.285 47.5 25.52C44.105 19.285 37.585 15 30 15C18.97 15 10 23.97 10 35C10 39.51 11.56 43.635 14.085 46.98C12.8229 47.9029 11.7956 49.1096 11.086 50.5028C10.3764 51.896 10.0044 53.4365 10 55V95C10 100.515 14.485 105 20 105H80C85.515 105 90 100.515 90 95V81.81L110 91.81V56.81L90 66.81V55ZM65 25C70.515 25 75 29.485 75 35C75 40.515 70.515 45 65 45C59.485 45 55 40.515 55 35C55 29.485 59.485 25 65 25ZM30 25C35.515 25 40 29.485 40 35C40 40.515 35.515 45 30 45C24.485 45 20 40.515 20 35C20 29.485 24.485 25 30 25ZM20 95V55H80L80.01 95H20Z" fill="white"/>
</svg>
