<svg width="120" height="120" viewBox="0 0 120 120" fill="none" xmlns="http://www.w3.org/2000/svg">
<path d="M40 90V28.58C39.9997 26.191 40.8547 23.8809 42.4101 22.0677C43.9656 20.2545 46.1188 19.0581 48.48 18.695L93.48 11.77C94.9051 11.5508 96.3607 11.6424 97.7471 12.0385C99.1334 12.4346 100.418 13.1258 101.512 14.0647C102.606 15.0037 103.484 16.1681 104.086 17.4782C104.689 18.7883 105 20.2132 105 21.655V80" stroke="white" stroke-width="10" stroke-linecap="round" stroke-linejoin="round"/>
<path d="M40 45L105 35" stroke="white" stroke-width="10"/>
<path d="M40 90C40 93.9782 38.4196 97.7936 35.6066 100.607C32.7936 103.42 28.9782 105 25 105C21.0218 105 17.2064 103.42 14.3934 100.607C11.5804 97.7936 10 93.9782 10 90C10 81.715 16.715 80 25 80C33.285 80 40 81.715 40 90ZM105 80C105 83.9782 103.42 87.7936 100.607 90.6066C97.7936 93.4196 93.9782 95 90 95C86.0218 95 82.2064 93.4196 79.3934 90.6066C76.5804 87.7936 75 83.9782 75 80C75 71.715 81.715 70 90 70C98.285 70 105 71.715 105 80Z" stroke="white" stroke-width="10" stroke-linecap="round" stroke-linejoin="round"/>
</svg>
